<?xml version="1.0" encoding="utf-8"?>
<svg xmlns="http://www.w3.org/2000/svg" viewBox="0 0 467.122 227.667">
  <path d="M 45.006 40.889 C 34.806 44.389 28.406 52.089 27.006 62.189 C 26.106 68.589 28.106 74.589 32.706 79.589 C 37.506 84.789 43.506 87.489 56.206 90.089 C 61.606 91.189 66.606 92.689 67.406 93.289 C 69.806 95.289 70.706 98.889 69.406 101.489 C 66.806 107.389 56.006 108.189 44.906 103.289 C 36.106 99.389 33.706 99.289 29.706 102.989 C 24.406 107.889 26.206 113.389 34.806 118.389 C 43.806 123.589 54.106 125.589 62.806 124.089 C 82.406 120.489 93.506 103.589 86.506 88.089 C 82.306 78.889 77.806 76.089 61.506 72.889 C 52.606 71.189 49.606 70.189 47.306 68.089 C 44.806 65.889 44.406 64.889 45.006 62.689 C 45.906 59.189 51.006 56.089 56.106 56.089 C 58.306 56.089 63.106 57.089 66.906 58.289 C 74.906 60.889 77.906 60.289 81.306 55.189 C 83.406 52.089 83.506 51.689 82.006 49.189 C 76.906 40.589 58.106 36.389 45.006 40.889 Z"/>
  <path d="M 123.306 39.989 C 97.506 40.689 98.306 40.389 98.906 48.789 C 99.506 56.689 100.106 57.089 112.706 57.089 L 123.606 57.089 L 123.606 87.989 C 123.606 116.889 123.706 118.989 125.506 121.189 C 127.106 123.189 128.406 123.589 132.506 123.589 C 141.406 123.589 141.106 124.789 141.406 88.589 L 141.706 57.089 L 151.906 57.089 C 157.506 57.089 162.606 56.689 163.206 56.289 C 167.006 53.789 167.806 44.489 164.506 41.489 C 162.006 39.289 158.206 39.089 123.306 39.989 Z"/>
  <path d="M 265.606 39.789 C 264.806 40.089 263.306 40.989 262.406 41.889 C 260.706 43.289 260.606 46.489 260.606 81.289 L 260.606 119.189 L 263.106 121.589 C 267.206 125.789 275.906 124.289 277.406 119.189 C 277.806 117.789 278.106 99.989 278.106 79.789 L 278.106 42.889 L 275.706 40.989 C 273.506 39.189 268.806 38.589 265.606 39.789 Z"/>
  <path d="M 300.606 39.889 C 295.506 40.689 295.606 39.689 295.606 81.589 C 295.606 116.489 295.806 120.989 297.206 122.189 C 298.206 122.989 302.406 123.689 308.506 123.889 C 333.806 124.889 349.906 117.389 358.206 100.589 C 368.506 79.689 360.006 53.689 339.706 43.889 C 333.406 40.789 332.406 40.589 318.106 40.089 C 309.906 39.789 302.006 39.789 300.606 39.889 Z M 329.506 59.289 C 338.206 62.489 343.606 71.189 343.606 81.789 C 343.506 96.389 335.806 104.689 321.006 105.789 L 313.706 106.389 L 313.406 82.189 C 313.206 68.789 313.306 57.689 313.606 57.489 C 314.206 56.789 326.606 58.189 329.506 59.289 Z"/>
  <path d="M 397.706 39.789 C 382.306 40.089 378.906 40.389 377.406 41.789 C 375.706 43.289 375.606 45.989 375.606 80.489 C 375.606 108.389 375.906 118.189 376.906 120.089 L 378.206 122.589 L 403.006 122.889 C 430.406 123.189 430.806 123.089 432.106 116.989 C 432.606 114.789 431.406 108.189 430.306 106.889 C 430.206 106.789 422.006 106.489 412.106 106.189 L 394.106 105.589 L 393.806 97.289 L 393.506 89.089 L 409.406 89.089 C 424.706 89.089 425.306 88.989 427.406 86.789 C 430.306 83.689 430.406 76.889 427.606 74.089 C 425.806 72.289 424.306 72.089 410.206 72.089 C 392.706 72.089 393.606 72.589 393.606 62.989 L 393.606 57.089 L 410.906 57.089 C 430.106 57.089 430.706 56.889 432.006 50.489 C 433.606 42.989 429.306 38.889 420.406 39.289 C 418.006 39.489 407.806 39.689 397.706 39.789 Z"/>
  <path d="M 181.706 41.989 C 180.406 44.289 180.206 118.889 181.406 120.689 C 183.806 124.389 191.006 125.089 195.006 121.989 C 197.506 119.989 197.606 119.589 197.606 108.989 L 197.606 98.089 L 203.106 98.089 L 208.706 98.089 L 216.706 110.289 C 225.106 123.289 226.906 124.689 233.006 123.589 C 237.006 122.889 239.606 120.289 239.606 117.089 C 239.606 115.589 237.106 110.289 233.906 105.089 C 228.606 96.289 228.406 95.689 230.206 94.689 C 231.206 94.089 234.406 91.289 237.206 88.589 C 243.306 82.389 245.106 77.189 244.406 67.189 C 243.606 56.489 237.806 47.889 227.906 42.989 C 223.406 40.789 221.806 40.589 202.906 40.289 C 183.606 39.989 182.706 39.989 181.706 41.989 Z M 221.706 60.389 C 227.606 64.289 227.906 73.289 222.306 77.489 C 220.106 79.089 217.706 79.589 209.506 79.889 C 201.706 80.189 199.206 79.989 198.506 78.989 C 197.606 77.589 197.206 58.789 198.006 57.989 C 198.206 57.789 203.106 57.789 208.806 58.089 C 216.306 58.489 219.806 59.089 221.706 60.389 Z"/>
  <path d="M 76.706 163.489 C 73.806 165.089 71.706 168.689 71.606 172.089 C 71.606 176.289 74.306 178.889 80.406 180.689 C 87.706 182.789 89.406 184.189 87.106 186.489 C 85.006 188.589 82.206 188.489 78.506 186.389 C 75.806 184.789 75.606 184.789 73.606 186.589 C 70.906 189.089 71.006 189.789 74.906 192.189 C 77.406 193.789 79.306 194.089 84.006 193.789 C 91.206 193.389 94.606 190.289 94.606 184.189 C 94.606 179.289 91.806 176.689 84.606 174.889 C 80.206 173.889 79.006 173.189 78.806 171.389 C 78.406 168.489 82.106 167.489 87.106 169.089 C 90.306 170.189 90.906 170.089 92.106 168.389 C 94.106 165.789 94.006 165.489 90.206 163.689 C 86.106 161.789 80.006 161.689 76.706 163.489 Z"/>
  <path d="M 118.606 164.289 C 108.606 169.489 107.706 184.289 116.906 191.189 C 121.406 194.489 129.706 194.589 134.406 191.289 C 143.606 184.689 142.806 169.989 133.006 164.389 C 128.006 161.489 124.206 161.489 118.606 164.289 Z M 129.806 170.189 C 132.406 171.589 134.706 177.089 133.906 180.189 C 131.406 190.489 117.606 188.789 117.606 178.089 C 117.606 171.089 123.906 166.989 129.806 170.189 Z"/>
  <path d="M 297.906 164.089 C 290.306 167.989 287.106 175.989 290.106 183.589 C 293.506 192.589 303.206 196.389 311.806 192.189 C 317.706 189.289 319.906 185.889 320.406 179.089 C 320.706 174.589 320.406 172.989 318.406 170.189 C 313.206 162.489 305.506 160.289 297.906 164.089 Z M 308.906 170.189 C 311.806 171.489 313.606 174.989 313.606 179.189 C 313.606 186.389 303.106 190.089 298.706 184.489 C 295.706 180.689 295.906 174.689 299.106 171.589 C 301.706 168.889 305.106 168.389 308.906 170.189 Z"/>
  <path d="M 326.206 163.689 C 324.906 164.889 324.606 167.789 324.606 179.089 L 324.606 192.889 L 327.206 193.489 C 328.706 193.889 330.306 193.789 330.706 193.389 C 331.106 192.989 331.606 188.589 331.806 183.689 L 332.106 174.689 L 338.106 182.189 C 346.106 192.189 348.106 194.089 350.606 194.089 C 352.506 194.089 352.606 193.489 352.606 178.589 L 352.606 163.089 L 349.706 163.089 C 347.106 163.089 346.706 163.489 346.206 166.789 C 345.906 168.889 345.706 172.589 345.706 174.989 C 345.706 177.389 345.506 179.489 345.306 179.689 C 345.106 179.889 342.906 177.489 340.306 174.389 C 334.206 166.589 329.906 162.089 328.706 162.089 C 328.206 162.089 327.006 162.789 326.206 163.689 Z"/>
  <path d="M 372.406 163.789 C 367.806 166.689 366.606 171.189 369.106 175.989 C 370.506 178.789 373.506 180.489 379.306 181.589 C 383.606 182.489 385.106 184.389 383.106 186.489 C 381.006 188.489 377.706 188.489 374.806 186.489 C 372.106 184.689 370.206 185.189 368.606 187.989 C 366.206 192.589 378.906 196.089 385.506 192.689 C 389.406 190.589 390.606 188.789 390.806 184.689 C 391.006 180.289 387.806 176.489 383.206 175.589 C 375.206 173.989 372.806 171.789 376.206 168.989 C 377.406 167.989 378.606 167.989 382.306 168.889 C 386.306 169.989 387.006 169.989 388.206 168.389 C 390.206 165.689 389.906 165.089 386.106 163.489 C 381.606 161.589 375.706 161.789 372.406 163.789 Z"/>
  <path d="M 156.006 165.389 C 155.706 166.689 155.706 172.489 156.006 178.189 C 156.306 183.889 156.606 189.789 156.606 191.289 L 156.606 194.089 L 166.606 194.089 L 176.606 194.089 L 176.606 190.589 L 176.606 187.089 L 169.606 187.089 L 162.606 187.089 L 162.606 175.089 L 162.606 163.089 L 159.606 163.089 C 157.306 163.089 156.506 163.589 156.006 165.389 Z"/>
  <path d="M 191.806 174.489 C 192.306 187.389 193.506 190.289 199.106 192.689 C 203.906 194.689 208.306 194.489 212.106 192.089 C 217.206 188.989 218.606 184.889 218.606 173.189 L 218.606 163.089 L 215.106 163.089 L 211.606 163.089 L 211.606 172.889 C 211.606 184.489 210.406 187.089 205.106 187.089 C 199.806 187.089 198.606 184.489 198.606 172.889 L 198.606 163.089 L 195.006 163.089 L 191.306 163.089 L 191.806 174.489 Z"/>
  <path d="M 232.606 166.089 C 232.606 168.989 232.706 169.089 237.606 169.089 L 242.606 169.089 L 242.606 181.589 L 242.606 194.089 L 245.606 194.089 L 248.606 194.089 L 248.606 181.589 L 248.606 169.089 L 253.606 169.089 C 258.506 169.089 258.606 168.989 258.606 166.089 L 258.606 163.089 L 245.606 163.089 L 232.606 163.089 L 232.606 166.089 Z"/>
  <path d="M 274.606 178.689 L 274.606 194.189 L 277.906 193.889 C 280.806 193.589 281.106 193.289 281.006 190.289 C 281.006 188.589 280.906 181.689 280.806 175.089 L 280.606 163.089 L 277.606 163.089 L 274.606 163.089 L 274.606 178.689 Z"/>
</svg>