<?xml version="1.0" encoding="utf-8"?>
<svg version="1.0" xmlns="http://www.w3.org/2000/svg" width="1024.000000pt" height="1024.000000pt" viewBox="-2.541 0 663.186 650.481" preserveAspectRatio="xMidYMid meet">
  <g transform="translate(0.000000,1024.000000) scale(0.100000,-0.100000)" fill="#000000" stroke="none">
    <path d="M 3037.82 10211.8 C 2492.82 10153.8 2061.82 10014.8 1620.82 9756.78 C 1067.82 9431.78 637.816 8967.78 352.816 8386.78 C 172.816 8021.78 71.816 7663.78 33.816 7262.78 C -40.184 6481.78 172.816 5718.78 641.816 5083.78 C 1201.82 4326.78 2022.82 3868.78 2996.82 3771.78 C 3148.82 3756.78 3510.82 3759.78 3667.82 3776.78 C 4252.82 3841.78 4773.82 4037.78 5232.82 4365.78 C 5784.82 4759.78 6221.82 5358.78 6430.82 6007.78 C 6649.82 6689.78 6633.82 7398.78 6382.82 8071.78 C 6166.82 8648.78 5797.82 9154.78 5307.82 9542.78 C 5229.82 9604.78 5026.82 9736.78 4912.82 9798.78 C 4519.82 10014.8 4148.82 10136.8 3707.82 10196.8 C 3571.82 10215.8 3160.82 10224.8 3037.82 10211.8 Z M 3602.82 8610.78 C 3814.82 8354.78 3994.82 8138.78 4061.82 8061.78 C 4153.82 7954.78 4280.82 7794.78 4301.82 7758.78 C 4353.82 7667.78 4747.82 6908.78 4919.82 6566.78 C 5018.82 6368.78 5120.82 6168.78 5145.82 6122.78 L 5190.82 6038.78 L 5144.82 6071.78 C 5119.82 6089.78 5029.82 6158.78 4944.82 6225.78 C 4860.82 6291.78 4701.82 6416.78 4592.82 6501.78 C 4217.82 6794.78 4236.82 6776.78 4106.82 6972.78 C 4042.82 7068.78 3909.82 7263.78 3811.82 7406.78 C 3453.82 7930.78 3394.82 8017.78 3354.82 8078.78 C 3332.82 8113.78 3312.82 8139.78 3310.82 8138.78 C 3305.82 8132.78 3420.82 7774.78 3565.82 7344.78 L 3705.82 6932.78 L 3668.82 6908.78 C 3617.82 6875.78 3352.82 6712.78 3167.82 6601.78 C 3082.82 6549.78 2994.82 6497.78 2973.82 6483.78 L 2934.82 6459.78 L 2993.82 6434.78 C 3025.82 6421.78 3225.82 6345.78 3437.82 6264.78 C 3845.82 6110.78 4246.82 5952.78 4236.82 5952.78 C 4232.82 5951.78 4194.82 5957.78 4151.82 5965.78 C 4055.82 5983.78 3907.82 6002.78 3852.82 6003.78 C 3819.82 6004.78 3773.82 5984.78 3592.82 5887.78 C 3471.82 5823.78 3245.82 5706.78 3090.82 5628.78 L 2808.82 5486.78 L 2679.82 5529.78 L 2550.82 5571.78 L 2471.82 5659.78 C 2427.82 5707.78 2368.82 5775.78 2340.82 5811.78 C 2291.82 5875.78 2197.82 6014.78 2197.82 6025.78 C 2197.82 6028.78 2218.82 6024.78 2245.82 6016.78 C 2299.82 6000.78 2419.82 5980.78 2425.82 5985.78 C 2427.82 5987.78 2390.82 6038.78 2342.82 6098.78 C 2259.82 6203.78 2147.82 6361.78 2147.82 6375.78 C 2147.82 6379.78 2159.82 6375.78 2175.82 6368.78 C 2220.82 6344.78 2367.82 6311.78 2367.82 6325.78 C 2367.82 6327.78 2344.82 6368.78 2315.82 6417.78 C 2252.82 6526.78 2158.82 6723.78 2087.82 6895.78 C 2046.82 6994.78 2031.82 7019.78 2025.82 7005.78 C 1950.82 6822.78 1760.82 6423.78 1721.82 6366.78 C 1696.82 6330.78 1703.82 6323.78 1756.82 6333.78 C 1784.82 6338.78 1831.82 6350.78 1861.82 6361.78 C 1892.82 6371.78 1917.82 6378.78 1917.82 6375.78 C 1917.82 6362.78 1799.82 6195.78 1723.82 6098.78 C 1676.82 6039.78 1637.82 5989.78 1637.82 5986.78 C 1637.82 5978.78 1698.82 5989.78 1786.82 6012.78 C 1826.82 6023.78 1861.82 6030.78 1862.82 6029.78 C 1867.82 6023.78 1786.82 5896.78 1734.82 5826.78 C 1689.82 5765.78 1677.82 5756.78 1647.82 5753.78 C 1613.82 5751.78 1610.82 5754.78 1560.82 5829.78 C 1531.82 5873.78 1507.82 5913.78 1507.82 5919.78 C 1507.82 5924.78 1517.82 5927.78 1530.82 5924.78 C 1548.82 5920.78 1546.82 5923.78 1522.82 5939.78 C 1486.82 5961.78 1443.82 6011.78 1421.82 6054.78 C 1406.82 6082.78 1406.82 6084.78 1423.82 6077.78 C 1457.82 6064.78 1538.82 6049.78 1544.82 6055.78 C 1547.82 6058.78 1527.82 6086.78 1500.82 6118.78 C 1451.82 6175.78 1387.82 6264.78 1387.82 6275.78 C 1387.82 6278.78 1397.82 6277.78 1410.82 6272.78 C 1442.82 6260.78 1517.82 6250.78 1517.82 6257.78 C 1517.82 6260.78 1496.82 6302.78 1470.82 6349.78 C 1445.82 6396.78 1398.82 6492.78 1366.82 6563.78 C 1335.82 6634.78 1307.82 6694.78 1304.82 6697.78 C 1302.82 6700.78 1289.82 6676.78 1277.82 6644.78 C 1250.82 6576.78 1140.82 6352.78 1109.82 6301.78 C 1097.82 6282.78 1087.82 6263.78 1087.82 6258.78 C 1087.82 6249.78 1165.82 6260.78 1190.82 6273.78 C 1200.82 6278.78 1211.82 6280.78 1214.82 6278.78 C 1219.82 6272.78 1115.82 6129.78 1068.82 6077.78 L 1042.82 6048.78 L 1096.82 6055.78 C 1126.82 6059.78 1159.82 6067.78 1169.82 6072.78 C 1196.82 6086.78 1192.82 6067.78 1157.82 6016.78 C 1129.82 5976.78 1095.82 5942.78 1051.82 5914.78 C 1034.82 5903.78 1035.82 5902.78 1060.82 5907.78 C 1095.82 5915.78 1094.82 5904.78 1054.82 5845.78 C 1021.82 5798.78 1018.82 5796.78 966.816 5793.78 L 912.816 5791.78 L 870.816 5856.78 L 828.816 5922.78 L 874.816 5915.78 L 920.816 5908.78 L 858.816 5989.78 L 796.816 6071.78 L 842.816 6064.78 C 867.816 6061.78 887.816 6060.78 887.816 6063.78 C 887.816 6066.78 870.816 6103.78 849.816 6147.78 C 828.816 6190.78 795.816 6259.78 777.816 6299.78 C 759.816 6338.78 741.816 6371.78 738.816 6371.78 C 735.816 6371.78 700.816 6299.78 661.816 6211.78 C 588.816 6048.78 587.816 6040.78 643.816 6061.78 C 658.816 6067.78 672.816 6070.78 674.816 6068.78 C 676.816 6066.78 653.816 6029.78 622.816 5987.78 C 592.816 5944.78 567.816 5908.78 567.816 5906.78 C 567.816 5904.78 582.816 5907.78 599.816 5912.78 C 647.816 5925.78 648.816 5924.78 626.816 5887.78 C 602.816 5846.78 529.816 5761.78 517.816 5761.78 C 500.816 5761.78 411.816 5988.78 363.816 6155.78 L 340.816 6234.78 L 436.816 6315.78 C 489.816 6360.78 645.816 6491.78 782.816 6606.78 C 920.816 6721.78 1149.82 6917.78 1293.82 7041.78 C 1506.82 7225.78 1711.82 7400.78 1831.82 7500.78 C 1848.82 7514.78 1847.82 7511.78 1827.82 7472.78 C 1794.82 7406.78 1619.82 7103.78 1588.82 7057.78 C 1573.82 7034.78 1557.82 7010.78 1552.82 7002.78 C 1541.82 6983.78 1717.82 7133.78 1871.82 7275.78 C 2205.82 7582.78 2552.82 7959.78 3177.82 8694.78 C 3273.82 8808.78 3354.82 8900.78 3357.82 8900.78 C 3360.82 8900.78 3470.82 8769.78 3602.82 8610.78 Z M 4731.82 7556.78 C 4802.82 7531.78 4862.82 7511.78 4864.82 7511.78 C 4867.82 7511.78 4896.82 7485.78 4930.82 7453.78 C 5008.82 7380.78 5358.82 7071.78 5582.82 6879.78 C 5676.82 6799.78 5811.82 6682.78 5882.82 6620.78 C 5954.82 6558.78 6067.82 6461.78 6135.82 6403.78 C 6202.82 6346.78 6257.82 6292.78 6257.82 6283.78 C 6257.82 6271.78 6228.82 6163.78 6212.82 6113.78 C 6209.82 6105.78 6160.82 6140.78 6085.82 6204.78 C 6017.82 6260.78 5930.82 6334.78 5891.82 6366.78 C 5817.82 6429.78 5765.82 6474.78 5557.82 6656.78 C 5487.82 6717.78 5366.82 6822.78 5286.82 6890.78 C 5114.82 7038.78 4801.82 7350.78 4696.82 7476.78 C 4606.82 7585.78 4593.82 7601.78 4598.82 7601.78 C 4600.82 7601.78 4660.82 7581.78 4731.82 7556.78 Z M 6022.82 5649.78 C 6030.82 5641.78 5956.82 5498.78 5929.82 5468.78 C 5919.82 5457.78 5904.82 5451.78 5890.82 5454.78 C 5856.82 5460.78 5543.82 5444.78 5457.82 5431.78 C 5290.82 5406.78 5149.82 5376.78 4882.82 5311.78 C 4728.82 5273.78 4562.82 5234.78 4512.82 5225.78 C 4309.82 5189.78 3969.82 5216.78 3620.82 5294.78 L 3522.82 5316.78 L 3652.82 5318.78 C 3945.82 5322.78 4289.82 5380.78 4837.82 5516.78 C 5148.82 5593.78 5304.82 5623.78 5567.82 5655.78 C 5624.82 5661.78 6015.82 5657.78 6022.82 5649.78 Z M 1417.82 5606.78 C 1605.82 5586.78 1860.82 5546.78 2072.82 5505.78 C 2248.82 5471.78 2763.82 5346.78 3022.82 5276.78 C 3689.82 5094.78 3979.82 5042.78 4378.82 5034.78 C 4704.82 5027.78 4908.82 5047.78 5237.82 5117.78 C 5331.82 5137.78 5690.82 5227.78 5760.82 5247.78 C 5769.82 5250.78 5777.82 5248.78 5777.82 5243.78 C 5777.82 5238.78 5731.82 5179.78 5676.82 5110.78 C 5620.82 5042.78 5573.82 4985.78 5572.82 4984.78 C 5568.82 4978.78 5290.82 4909.78 5196.82 4891.78 C 4945.82 4841.78 4837.82 4829.78 4575.82 4824.78 C 4276.82 4818.78 4202.82 4823.78 3647.82 4891.78 C 3136.82 4954.78 2983.82 4968.78 2683.82 4982.78 C 2180.82 5005.78 1698.82 4970.78 1299.82 4880.78 L 1167.82 4850.78 L 1127.82 4881.78 C 1105.82 4898.78 1065.82 4938.78 1037.82 4969.78 L 987.816 5025.78 L 1049.82 5043.78 C 1129.82 5066.78 1308.82 5104.78 1462.82 5131.78 C 1706.82 5173.78 1915.82 5193.78 2197.82 5199.78 L 2472.82 5204.78 L 2387.82 5228.78 C 1942.82 5350.78 1304.82 5431.78 886.816 5418.78 L 709.816 5413.78 L 653.816 5496.78 C 622.816 5541.78 595.816 5586.78 591.816 5594.78 C 585.816 5609.78 593.816 5611.78 782.816 5625.78 C 882.816 5633.78 1285.82 5621.78 1417.82 5606.78 Z M 5147.82 4594.78 C 5147.82 4584.78 4934.82 4442.78 4822.82 4376.78 C 4690.82 4298.78 4656.82 4284.78 4552.82 4262.78 C 4251.82 4200.78 3892.82 4207.78 3377.82 4286.78 C 2699.82 4390.78 2447.82 4400.78 2056.82 4340.78 L 1921.82 4319.78 L 1846.82 4356.78 C 1782.82 4389.78 1640.82 4467.78 1628.82 4477.78 C 1619.82 4485.78 1636.82 4490.78 1761.82 4516.78 C 2041.82 4573.78 2174.82 4585.78 2522.82 4585.78 C 2870.82 4584.78 2872.82 4584.78 3459.82 4497.78 C 3590.82 4478.78 3756.82 4457.78 3828.82 4450.78 C 4015.82 4434.78 4355.82 4444.78 4532.82 4471.78 C 4679.82 4493.78 5019.82 4563.78 5090.82 4586.78 C 5142.82 4602.78 5147.82 4603.78 5147.82 4594.78 Z"/>
    <path d="M 2878.41 7835.08 C 2786.41 7711.08 2663.41 7548.08 2604.41 7472.08 L 2496.41 7334.08 L 2464.41 7044.08 C 2446.41 6884.08 2427.41 6725.08 2423.41 6690.08 L 2415.41 6625.08 L 2436.41 6651.08 C 2448.41 6665.08 2545.41 6773.08 2653.41 6891.08 L 2850.41 7105.08 L 2892.41 7325.08 C 2937.41 7559.08 3013.41 7915.08 3036.41 8005.08 C 3044.41 8035.08 3049.41 8059.08 3047.41 8059.08 C 3045.41 8059.08 2969.41 7958.08 2878.41 7835.08 Z"/>
  </g>
</svg>